<svg width="32" height="32" viewBox="0 0 32 32" fill="none" xmlns="http://www.w3.org/2000/svg">
<circle cx="16" cy="16" r="16" fill="#0C0932"/>
<path fill-rule="evenodd" clip-rule="evenodd" d="M20.5346 11.197C20.568 11.2553 20.6263 11.2969 20.7013 11.2969C22.7013 11.2969 24.3346 12.9284 24.3346 14.9262V19.8707C24.3346 21.8685 22.7013 23.5 20.7013 23.5H11.3013C9.29297 23.5 7.66797 21.8685 7.66797 19.8707V14.9262C7.66797 12.9284 9.29297 11.2969 11.3013 11.2969C11.368 11.2969 11.4346 11.2636 11.4596 11.197L11.5096 11.0971C11.5384 11.0366 11.5678 10.9745 11.5978 10.9115C11.811 10.4625 12.0468 9.96567 12.193 9.6737C12.5763 8.92453 13.2263 8.50832 14.0346 8.5H17.9596C18.768 8.50832 19.4263 8.92453 19.8096 9.6737C19.9409 9.93592 20.1409 10.3583 20.3336 10.7654C20.3734 10.8494 20.4128 10.9327 20.4513 11.0139L20.5346 11.197ZM19.9263 14.3935C19.9263 14.8097 20.2596 15.1426 20.6763 15.1426C21.093 15.1426 21.4346 14.8097 21.4346 14.3935C21.4346 13.9772 21.093 13.636 20.6763 13.636C20.2596 13.636 19.9263 13.9772 19.9263 14.3935ZM14.5596 15.6837C14.9513 15.2925 15.4596 15.0844 16.0013 15.0844C16.543 15.0844 17.0513 15.2925 17.4346 15.6754C17.818 16.0583 18.0263 16.566 18.0263 17.1071C18.018 18.2225 17.118 19.1299 16.0013 19.1299C15.4596 19.1299 14.9513 18.9218 14.568 18.5388C14.1846 18.1559 13.9763 17.6482 13.9763 17.1071V17.0988C13.968 16.5744 14.1763 16.0666 14.5596 15.6837ZM18.3096 19.4212C17.718 20.0122 16.9013 20.3785 16.0013 20.3785C15.1263 20.3785 14.3096 20.0372 13.6846 19.4212C13.068 18.7969 12.7263 17.9811 12.7263 17.1071C12.718 16.2414 13.0596 15.4256 13.6763 14.8013C14.3013 14.177 15.1263 13.8357 16.0013 13.8357C16.8763 13.8357 17.7013 14.177 18.318 14.793C18.9346 15.4173 19.2763 16.2414 19.2763 17.1071C19.268 18.0144 18.9013 18.8302 18.3096 19.4212Z" fill="#3DED97"/>
</svg>
